Patient4_TMGait_0pt7_01_left_33_EMG.mot
version=1
nRows=16
nColumns=33
inDegrees=no
endheader
time	1LAddLong	2LGlutMax	3LGlutMed	4LIliopsoas	5LSemiMemb	6LBicFemLong	7LRecFem	8LVastMed	9LVastLat	10LGasMed	11LTibAnt	12lTibPost	13LPeroneusLong	14LSol	15LExtDigLong	16LFlexDigLong	17RAddLong	18RGlutMax	19RGlutMed	20RIliopsoas	21RSemiMemb	22RBicFemLong	23RRecFem	24RVastMed	25RVastLat	26RGasMed	27RTibAnt	28RTibPost	29RPeroneusLong	30RSol	31RExtDigLong	32RFlexDigLong
38.925	-0.000153	-0.088348	-0.48065	0.005951	-0.027771	-0.075684	-0.23422	0.005188	0.049591	-0.092773	0.014496	-0.02533	-0.096283	0.28809	0.061951	-0.077667	-0.010681	0.22812	0.38345	0.0177	0.73944	-1.0097	-0.18814	-0.33981	-0.70007	0.007324	0.19867	-0.013733	-0.16525	-0.090332	-0.014496	-0.016022
38.926	0.010834	-0.081177	-0.51239	-0.009613	-0.039978	-0.17334	-0.24155	-0.002136	0.080109	-0.15808	0.006409	-0.018005	-0.11108	0.25681	0.069427	0.14816	0.030823	0.27451	0.81467	-0.020447	0.56534	-0.99991	-0.46845	-0.14175	-0.64697	0.002747	0.16449	-0.014191	0.233	-0.045776	-0.005798	-0.016022
38.927	0.020447	-0.11139	-0.50629	0.008545	0.023956	-0.10529	-0.22659	0.009918	0.049744	-0.14786	0.004883	-0.015717	-0.077209	0.25665	0.054169	0.081482	0.040283	0.29739	1.2508	-0.076599	0.29678	-0.93903	-0.35919	-0.002136	0.24246	-0.001984	0.002747	-0.013733	1.1873	0.005188	-0.016479	-0.009155
38.928	0.014191	-0.097961	-0.46921	0.013275	0.091858	-0.10529	-0.23895	0.007172	0.06134	-0.067291	0.004425	-0.009155	-0.009155	0.33844	0.063477	0.096741	0.053864	0.21545	1.0699	-0.021667	0.1532	-0.92163	-0.14008	-0.04364	0.98221	-0.003052	-0.28381	-0.015869	1.1325	-0.007629	-0.016937	-0.005188
38.929	0.013123	-0.069122	-0.40314	-0.006409	0.027618	0.015259	-0.22446	0.011597	0.066376	-0.15182	-0.001831	-0.005646	0.002747	0.30502	0.068512	-0.042877	0.13794	0.002747	1.0091	0.046387	0.56824	-1.0422	0.051727	-0.14252	0.90332	-0.005951	-0.51544	-0.011597	0.048828	-0.080414	-0.016174	-0.00412
38.93	0.005035	-0.022278	-0.345	-0.006866	-0.000458	0.06424	-0.25452	0.007477	0.075836	-0.054474	-0.001373	-0.013885	-0.13046	0.25085	0.069885	0.011749	0.20813	0.052795	0.86868	0.032501	0.80353	-1.0861	0.006866	-0.069122	0.54565	-0.005341	-0.31891	-0.012817	-0.19638	-0.071564	-0.015564	-0.006256
38.931	0.020294	-0.010681	-0.27313	0.001678	-0.000763	-0.003052	-0.25772	0.004883	0.096893	0.072632	0.00885	-0.013428	-0.19455	0.16998	0.047913	-0.40405	0.22995	-0.092163	0.57404	0.089417	0.48614	-0.8461	-0.066833	-0.16403	0.061951	-0.011902	0.039673	-0.014954	0.032806	0.053253	-0.01709	-0.012665
38.932	0.013123	-0.006714	-0.25955	0.005951	0.020447	-0.064545	-0.23666	0.011597	0.09201	0.20584	-0.004272	-0.014801	-0.073242	0.2945	0.027466	0.17548	0.18768	-0.21133	0.35538	0.04364	0.3215	-0.79865	-0.10925	-0.35599	-0.17151	-0.006409	0.20416	-0.017395	0.06897	0.058899	-0.018311	-0.00946
38.933	0.003052	0.036621	-0.24078	0.016174	0.02533	-0.064392	-0.24399	0.009308	0.11032	0.47699	-0.011139	-0.010986	-0.058136	0.35049	0.027618	-0.11459	0.041046	-0.18921	0.242	0.011902	-0.32028	-0.53116	-0.37643	-0.38101	-0.4039	0.001984	0.08255	-0.01358	0.30945	-0.047607	-0.015411	-0.002747
38.934	0.000458	0.096741	-0.18402	-0.006714	0.027618	-0.02594	-0.25803	0.011139	0.13092	0.60883	-0.010834	-0.014801	0.068054	0.47516	0.035706	0.33371	-0.057831	-0.27161	0.068359	0.052948	-0.15869	-0.21042	-0.59403	0.10513	-0.65384	0.010681	0.015411	-0.012054	0.61081	-0.028534	-0.011597	-0.014801
38.935	0.004425	0.062866	-0.14557	-0.004272	-0.015564	0.058289	-0.27451	0.016632	0.12634	0.26855	-0.010834	-0.16571	0.032196	0.55985	0.018463	0.50781	-0.159	-0.35034	0.1001	0.045013	0.48569	-0.15976	-0.56183	0.32577	-0.64041	0.008698	0.061646	-0.011749	0.14603	0.029907	-0.015869	-0.00412
38.936	0.003662	0.092468	-0.12344	-0.012817	0.089264	0.033569	-0.28336	0.003662	0.13458	0.030975	-0.002289	-0.6163	0.26032	0.35812	-0.026855	-0.15884	-0.21942	-0.41687	0.060425	0.079041	0.95139	-0.19196	-0.4274	0.15884	-0.34882	0.013885	0.12161	-0.005035	-0.56869	0.087585	-0.020447	-0.01236
38.937	0.017242	0.11124	-0.063019	-0.003967	0.036926	0.026855	-0.25253	0.010529	0.11124	0.007477	0.007782	0.69961	0.28275	-0.26764	-0.066833	-0.13718	-0.10605	-0.37827	0.46341	0.061798	1.017	-0.13153	-0.41229	0.075531	-0.20432	0.00885	0.1268	-0.005646	-0.38681	0.091705	-0.017395	-0.018616
38.938	0.01236	0.11093	-0.015259	-0.005035	-0.023956	0.083618	-0.26169	0.005035	0.10284	0.052032	0.024872	0.46112	0.12512	-0.65643	-0.069275	0.065765	-0.046692	-0.2887	0.40955	0.089874	0.74982	0.081329	-0.37766	-0.18219	-0.1355	-0.011902	0.11749	-0.016785	0.030212	-0.002289	-0.015259	-0.012207
38.939	0.015106	0.12421	-0.014343	-0.003967	-0.015717	0.014191	-0.27679	0.005798	0.0914	0.10468	0.006714	0.15823	0.008545	-0.75638	-0.007935	-0.028076	-0.039673	-0.19653	0.27908	0.03006	0.51743	0.14862	-0.48416	-0.48462	-0.095215	-0.011749	0.047607	-0.030365	1.0092	-0.19348	-0.019226	-0.005951
38.94	0.01236	0.13718	-0.016327	-0.006104	-0.002441	-0.004578	-0.26199	0.011292	0.093079	0.11139	0.000153	-0.17425	-0.10239	-0.61722	-0.016785	-0.044556	-0.011749	-0.16571	0.39185	-0.040741	0.47867	0.093079	-0.53085	-0.43564	0.013123	0.00061	0.003204	-0.012054	0.69855	-0.27664	-0.02182	-0.002441
